<svg width="213" height="64" viewBox="0 0 213 64" fill="none" xmlns="http://www.w3.org/2000/svg">
<rect width="213" height="60" rx="15" fill="#7451EB"/>
<path d="M28.3508 22.1797C26.1599 21.8178 23.9077 21.9627 21.8435 22.5963C17.1989 24.022 14.5596 27.6603 15.2811 31.6476C15.4103 32.3565 15.9527 32.9669 16.7704 33.3233C17.5657 33.6703 18.5058 33.7213 19.3489 33.4625L52.1197 23.403C45.9264 25.3041 42.0545 24.8211 35.9735 23.6491L28.3508 22.1797ZM42.0543 17.1485L37.2037 11.5775C36.9412 11.275 36.5845 11.0186 36.1549 10.8237C35.7254 10.6288 35.2319 10.4995 34.7041 10.4434C34.1762 10.3874 33.6249 10.4058 33.0832 10.4975C32.5415 10.5892 32.0205 10.7524 31.5516 10.9772L20.918 16.0716C20.1835 16.4234 19.607 16.9117 19.2709 17.4667C18.9348 18.0217 18.8564 18.615 19.0467 19.1617L19.9775 21.8163C20.3744 21.6571 20.7584 21.4865 21.1838 21.3559C23.6915 20.5861 26.4043 20.4094 29.1047 20.8553L36.7267 22.3248C42.2538 23.3896 45.6334 23.9511 51.46 22.1625C52.224 21.928 52.8523 21.5071 53.2069 20.9924C53.5615 20.4776 53.6133 19.9112 53.3509 19.4177C52.8275 18.4335 49.1149 15.3373 42.0543 17.1485Z" fill="black"/>
<path d="M40.4073 54.5269C38.5593 54.5269 36.9033 54.2269 35.4393 53.6269C33.9753 53.0269 32.7993 52.1389 31.9113 50.9629C31.0473 49.7869 30.5913 48.3709 30.5433 46.7149H37.0953C37.1913 47.6509 37.5153 48.3709 38.0673 48.8749C38.6193 49.3549 39.3393 49.5949 40.2273 49.5949C41.1393 49.5949 41.8593 49.3909 42.3873 48.9829C42.9153 48.5509 43.1793 47.9629 43.1793 47.2189C43.1793 46.5949 42.9633 46.0789 42.5313 45.6709C42.1233 45.2629 41.6073 44.9269 40.9833 44.6629C40.3833 44.3989 39.5193 44.0989 38.3913 43.7629C36.7593 43.2589 35.4273 42.7549 34.3953 42.2509C33.3633 41.7469 32.4753 41.0029 31.7313 40.0189C30.9873 39.0349 30.6153 37.7509 30.6153 36.1669C30.6153 33.8149 31.4673 31.9789 33.1713 30.6589C34.8753 29.3149 37.0953 28.6429 39.8313 28.6429C42.6153 28.6429 44.8593 29.3149 46.5633 30.6589C48.2673 31.9789 49.1793 33.8269 49.2993 36.2029H42.6393C42.5913 35.3869 42.2913 34.7509 41.7393 34.2949C41.1873 33.8149 40.4793 33.5749 39.6152 33.5749C38.8713 33.5749 38.2713 33.7789 37.8153 34.1869C37.3593 34.5709 37.1313 35.1349 37.1313 35.8789C37.1313 36.6949 37.5153 37.3309 38.2832 37.7869C39.0513 38.2429 40.2513 38.7349 41.8833 39.2629C43.5153 39.8149 44.8353 40.3429 45.8433 40.8469C46.8753 41.3509 47.7633 42.0829 48.5073 43.0429C49.2513 44.0029 49.6233 45.2389 49.6233 46.7509C49.6233 48.1909 49.2513 49.4989 48.5073 50.6749C47.7873 51.8509 46.7313 52.7869 45.3393 53.4829C43.9473 54.1789 42.3033 54.5269 40.4073 54.5269ZM65.7597 33.9709C68.0637 33.9709 69.9117 34.7389 71.3037 36.2749C72.6957 37.7869 73.3917 39.8749 73.3917 42.5389V54.2749H67.2717V43.3669C67.2717 42.0229 66.9237 40.9789 66.2277 40.2349C65.5317 39.4909 64.5957 39.1189 63.4197 39.1189C62.2437 39.1189 61.3077 39.4909 60.6117 40.2349C59.9157 40.9789 59.5677 42.0229 59.5677 43.3669V54.2749H53.4117V27.6349H59.5677V36.8869C60.1917 35.9989 61.0437 35.2909 62.1237 34.7629C63.2037 34.2349 64.4157 33.9709 65.7597 33.9709ZM147.633 54.2749H141.477L131.181 38.6869V54.2749H125.025V29.0029H131.181L141.477 44.6629V29.0029H147.633V54.2749Z" fill="black"/>
<path d="M86.8135 54.5629C84.8455 54.5629 83.0695 54.1429 81.4855 53.3029C79.9255 52.4629 78.6895 51.2629 77.7775 49.7029C76.8895 48.1429 76.4455 46.3189 76.4455 44.2309C76.4455 42.1669 76.9015 40.3549 77.8135 38.7949C78.7255 37.2109 79.9735 35.9989 81.5575 35.1589C83.1415 34.3189 84.9175 33.8989 86.8855 33.8989C88.8535 33.8989 90.6295 34.3189 92.2135 35.1589C93.7975 35.9989 95.0455 37.2109 95.9575 38.7949C96.8695 40.3549 97.3255 42.1669 97.3255 44.2309C97.3255 46.2949 96.8575 48.1189 95.9215 49.7029C95.0095 51.2629 93.7495 52.4629 92.1415 53.3029C90.5575 54.1429 88.7815 54.5629 86.8135 54.5629ZM86.8135 49.2349C87.9895 49.2349 88.9855 48.8029 89.8015 47.9389C90.6415 47.0749 91.0615 45.8389 91.0615 44.2309C91.0615 42.6229 90.6535 41.3869 89.8375 40.5229C89.0455 39.6589 88.0615 39.2269 86.8855 39.2269C85.6855 39.2269 84.6895 39.6589 83.8975 40.5229C83.1055 41.3629 82.7095 42.5989 82.7095 44.2309C82.7095 45.8389 83.0935 47.0749 83.8615 47.9389C84.6535 48.8029 85.6375 49.2349 86.8135 49.2349ZM106.747 37.0309C107.347 36.0949 108.175 35.3389 109.231 34.7629C110.287 34.1869 111.523 33.8989 112.939 33.8989C114.595 33.8989 116.095 34.3189 117.439 35.1589C118.783 35.9989 119.839 37.1989 120.607 38.7589C121.399 40.3189 121.795 42.1309 121.795 44.1949C121.795 46.2589 121.399 48.0829 120.607 49.6669C119.839 51.2269 118.783 52.4389 117.439 53.3029C116.095 54.1429 114.595 54.5629 112.939 54.5629C111.547 54.5629 110.311 54.2749 109.231 53.6989C108.175 53.1229 107.347 52.3789 106.747 51.4669V63.8509H100.591V34.1869H106.747V37.0309ZM115.531 44.1949C115.531 42.6589 115.099 41.4589 114.235 40.5949C113.395 39.7069 112.351 39.2629 111.103 39.2629C109.879 39.2629 108.835 39.7069 107.971 40.5949C107.131 41.4829 106.711 42.6949 106.711 44.2309C106.711 45.7669 107.131 46.9789 107.971 47.8669C108.835 48.7549 109.879 49.1989 111.103 49.1989C112.327 49.1989 113.371 48.7549 114.235 47.8669C115.099 46.9549 115.531 45.7309 115.531 44.1949ZM161.239 54.5629C159.271 54.5629 157.495 54.1429 155.911 53.3029C154.351 52.4629 153.115 51.2629 152.203 49.7029C151.315 48.1429 150.871 46.3189 150.871 44.2309C150.871 42.1669 151.327 40.3549 152.239 38.7949C153.151 37.2109 154.399 35.9989 155.983 35.1589C157.567 34.3189 159.343 33.8989 161.311 33.8989C163.279 33.8989 165.055 34.3189 166.639 35.1589C168.223 35.9989 169.471 37.2109 170.383 38.7949C171.295 40.3549 171.751 42.1669 171.751 44.2309C171.751 46.2949 171.283 48.1189 170.347 49.7029C169.435 51.2629 168.175 52.4629 166.567 53.3029C164.983 54.1429 163.207 54.5629 161.239 54.5629ZM161.239 49.2349C162.415 49.2349 163.411 48.8029 164.227 47.9389C165.067 47.0749 165.487 45.8389 165.487 44.2309C165.487 42.6229 165.079 41.3869 164.263 40.5229C163.471 39.6589 162.487 39.2269 161.311 39.2269C160.111 39.2269 159.115 39.6589 158.323 40.5229C157.531 41.3629 157.135 42.5989 157.135 44.2309C157.135 45.8389 157.519 47.0749 158.287 47.9389C159.079 48.8029 160.063 49.2349 161.239 49.2349ZM203.853 34.1869L198.417 54.2749H191.613L188.445 41.2429L185.169 54.2749H178.401L172.929 34.1869H179.085L181.929 48.5509L185.313 34.1869H191.829L195.249 48.4789L198.057 34.1869H203.853Z" fill="white"/>
</svg>
